<?xml version="1.0" encoding="UTF-8"?><svg id="Ebene_1" xmlns="http://www.w3.org/2000/svg" viewBox="0 0 241.21 236.34"><defs><style>.cls-1{fill:#fff;}.cls-2{fill:#75e7bc;}.cls-3{fill:#2649a5;}</style></defs><polygon class="cls-2" points="31.78 26.92 187.44 26.92 182.69 0 0 32.21 31.78 212.44 31.78 26.92"/><rect class="cls-3" x="31.78" y="26.92" width="209.43" height="209.43"/><path class="cls-1" d="M84.57,108.68c-2.58,1.95-4.4,4.65-5.44,8.12-.64,1.79-1.05,4.1-1.27,6.94-.21.53,0,.79.63.79h32.01c.53,0,.79-.26.79-.79-.21-2.62-.53-4.62-.94-5.99-.95-3.78-2.82-6.72-5.6-8.83-2.79-2.1-6.28-3.15-10.48-3.15-3.89,0-7.12.97-9.7,2.91M129.91,131.32l-.15,4.89c0,1.26-.64,1.89-1.89,1.89h-49.37c-.53,0-.78.26-.78.79.31,3.46.78,5.83,1.42,7.09,2.52,7.57,8.67,11.4,18.45,11.51,7.15,0,12.83-2.94,17.03-8.84.42-.63.95-.94,1.58-.94.42,0,.79.15,1.1.48l9.78,8.04c.94.74,1.1,1.58.48,2.52-3.26,4.63-7.6,8.2-13.01,10.72-5.41,2.53-11.44,3.79-18.06,3.79-8.2,0-15.16-1.84-20.89-5.52-5.73-3.68-9.91-8.83-12.54-15.45-2.42-5.68-3.62-13.56-3.62-23.66,0-6.1.63-11.04,1.89-14.82,2.1-7.36,6.07-13.17,11.91-17.43,5.84-4.26,12.85-6.38,21.05-6.38,20.71,0,32.38,10.83,35.01,32.49.42,2.63.63,5.57.63,8.83"/><path class="cls-1" d="M159.24,166.88c-5.89-4.15-9.99-9.76-12.3-16.79-1.68-4.74-2.52-11.04-2.52-18.93s.84-13.77,2.52-18.61c2.21-6.94,6.28-12.43,12.22-16.48,5.94-4.04,12.96-6.07,21.05-6.07s15.35,2.05,21.45,6.15c6.1,4.09,10.14,9.25,12.14,15.45.53,1.68.89,3.37,1.1,5.04v.32c0,1.05-.58,1.68-1.73,1.89l-14.19,2.05h-.31c-.95,0-1.58-.53-1.89-1.58,0-.53-.06-.94-.16-1.26-.21-.84-.42-1.58-.63-2.21-.94-2.95-2.83-5.37-5.68-7.26-2.83-1.89-6.21-2.84-10.09-2.84s-7.39,1.02-10.17,3.07c-2.79,2.05-4.65,4.86-5.6,8.44-1.05,3.36-1.58,8.04-1.58,14.03s.48,10.46,1.42,14.03c1.05,3.68,2.95,6.6,5.68,8.75,2.74,2.16,6.15,3.23,10.25,3.23s7.44-1.03,10.33-3.07c2.9-2.05,4.75-4.81,5.6-8.28.1-.21.15-.48.15-.79.1-.1.16-.26.16-.48.32-1.26,1.05-1.78,2.21-1.58l14.19,2.21c.52.11.97.35,1.34.71.37.37.5.87.39,1.5-.32,1.69-.58,2.89-.79,3.63-2,6.73-6.04,12.07-12.14,16.01-6.1,3.94-13.25,5.92-21.45,5.92s-15.09-2.08-20.97-6.23"/></svg>