<svg xmlns="http://www.w3.org/2000/svg" viewBox="0 0 819 512"><defs><style>.cls-1{fill:#003e75;}</style></defs><title>logos_MDS</title><g id="ecclesia-gruppe"><path id="path" class="cls-1" d="M0,.7v512H512V427.37H494.91v68.26H17V17.76H494.91V222.57H512V.7Z"/><path id="ecclesia-gruppe-2" data-name="ecclesia-gruppe" class="cls-1" d="M315.07,261.12H271.78v17.16h39.78v14.43H271.78v21.14H317v14.42H255.08V246.7h60Zm67.82,12.28c-1.37-4.89-4-14.09-18.06-14.09-8.18,0-20.22,5.45-20.22,28.52,0,14.65,5.79,27.83,20.22,27.83,9.43,0,16-5.34,18.06-15.34h17c-3.41,17.72-15,30.13-35.45,30.13-21.7,0-37.25-14.66-37.25-42.82,0-28.53,16.46-43.07,37.47-43.07,24.43,0,34.31,16.82,35.22,28.86Zm82,0c-1.36-4.89-4-14.09-18.06-14.09-8.19,0-20.23,5.45-20.23,28.52,0,14.65,5.79,27.83,20.23,27.83,9.43,0,16-5.34,18.06-15.34H482c-3.42,17.72-15,30.13-35.45,30.13-21.7,0-37.28-14.66-37.28-42.82,0-28.53,16.48-43.07,37.48-43.07,24.43,0,34.31,16.82,35.23,28.86Zm47,40.1h40.55v14.77h-57.6V246.7h17Zm112.35-52.38H581v17.16h39.76v14.43H581v21.14h45.21v14.42H564.35V246.7h60Zm28,42.05c.11,4.53,2.39,13.18,17.27,13.18,8.09,0,17-1.94,17-10.58,0-6.36-6.13-8.08-14.76-10.11l-8.76-2c-13.18-3.07-25.9-6-25.9-24,0-9.09,4.88-25.12,31.36-25.12,25,0,31.69,16.36,31.81,26.36H684c-.46-3.63-1.82-12.25-16.73-12.25-6.47,0-14.2,2.38-14.2,9.76,0,6.37,5.22,7.73,8.63,8.53l19.84,4.88c11.14,2.73,21.37,7.26,21.37,21.93,0,24.54-25,26.69-32.16,26.69-29.76,0-34.87-17.15-34.87-27.25Zm79.3,25.1h-17V246.7h17Zm48.17-63.17H780l10.1,32.27H769.29Zm-15,46.35h30.13l5.23,16.82h18.51L789.87,246.7H770.21l-29.08,81.57h18Zm-488.45,69h19.58v23.88H292l-1.43-5.78a16.32,16.32,0,0,1-6.22,5.07,19.37,19.37,0,0,1-8.51,1.88,23.7,23.7,0,0,1-5-.46,18.44,18.44,0,0,1-3.82-1.21,15,15,0,0,1-2.8-1.62,18.46,18.46,0,0,1-2-1.72,21.08,21.08,0,0,1-4-5A22.76,22.76,0,0,1,256,390.4a23.64,23.64,0,0,1-.81-4.73c-.08-1.47-.12-2.83-.12-4a28.16,28.16,0,0,1,1.25-8.2,22.22,22.22,0,0,1,3.85-7.43,19.51,19.51,0,0,1,16-7.49,23,23,0,0,1,6.27.9,19.8,19.8,0,0,1,5.82,2.7,16.32,16.32,0,0,1,4.47,4.6,15.46,15.46,0,0,1,2.33,6.53h-5.84a12.48,12.48,0,0,0-2.2-4.76,11.4,11.4,0,0,0-3.37-2.85,13.07,13.07,0,0,0-3.88-1.4,21.1,21.1,0,0,0-3.89-.37,13.81,13.81,0,0,0-5.66,1.18,13.3,13.3,0,0,0-4.66,3.48,16.73,16.73,0,0,0-3.13,5.68,23.9,23.9,0,0,0-1.15,7.74,34.55,34.55,0,0,0,.65,6.72,16.88,16.88,0,0,0,2.33,5.87,12.53,12.53,0,0,0,4.54,4.2,15,15,0,0,0,7.35,1.59c.53,0,1.17,0,1.89-.1a15.57,15.57,0,0,0,2.27-.37,15.18,15.18,0,0,0,2.46-.84,11.51,11.51,0,0,0,2.52-1.56,11.33,11.33,0,0,0,3.92-5.28,20.92,20.92,0,0,0,1-6.62h-14Zm36.29,23.88h-6V359.67h20.64a25.61,25.61,0,0,1,5.38.57,13.9,13.9,0,0,1,4.69,1.89,10,10,0,0,1,3.33,3.68,12.08,12.08,0,0,1,1.27,5.88,13.69,13.69,0,0,1-.56,4.22,10,10,0,0,1-1.47,2.94,9.81,9.81,0,0,1-2,2,23.54,23.54,0,0,1-2.21,1.47c.64.26,1.26.55,1.87.87a5.79,5.79,0,0,1,1.68,1.4,7.05,7.05,0,0,1,1.21,2.36,15.51,15.51,0,0,1,.59,3.76l.37,8.09a10.48,10.48,0,0,0,.1,1.58,4,4,0,0,0,.34,1.18,2.83,2.83,0,0,0,.68.93,5.57,5.57,0,0,0,1.12.74v1h-7.35a15.83,15.83,0,0,1-.53-2.64c-.15-1.1-.26-2.2-.34-3.33s-.14-2.2-.16-3.14,0-1.66,0-2.08a20.07,20.07,0,0,0-.22-2.8,5.86,5.86,0,0,0-1-2.58,6,6,0,0,0-2.43-1.86,10.53,10.53,0,0,0-4.26-.74H312.58Zm0-24.31h14a19,19,0,0,0,3.29-.28,7.56,7.56,0,0,0,2.9-1.12,6.3,6.3,0,0,0,2.08-2.33,10.26,10.26,0,0,0,0-8.08,5.83,5.83,0,0,0-2-2.2,6.51,6.51,0,0,0-2.62-.94,19.14,19.14,0,0,0-2.51-.19h-15Zm71.55-20.33v29a19.12,19.12,0,0,1-1.08,6.5,14.89,14.89,0,0,1-3.3,5.38,15.48,15.48,0,0,1-5.59,3.63,21.72,21.72,0,0,1-8,1.33,20.47,20.47,0,0,1-7.74-1.34,15,15,0,0,1-5.34-3.57,14.24,14.24,0,0,1-3.08-5.15,18.1,18.1,0,0,1-1-6V359.67h6v28.1a15.73,15.73,0,0,0,1,6,10.15,10.15,0,0,0,2.61,3.79,9.08,9.08,0,0,0,3.59,2,15.21,15.21,0,0,0,4.08.56,15.86,15.86,0,0,0,4.16-.56,9.55,9.55,0,0,0,6.53-5.66,14.92,14.92,0,0,0,1.06-6V359.67ZM401,404.31h-6V359.67H415a15.06,15.06,0,0,1,5.57,1,12.18,12.18,0,0,1,4.16,2.64,11.24,11.24,0,0,1,2.61,4,13.59,13.59,0,0,1,.91,5,15.9,15.9,0,0,1-.74,4.69,12.61,12.61,0,0,1-2.27,4.26,11.14,11.14,0,0,1-4.11,3.11,14.44,14.44,0,0,1-6.15,1.18H401Zm0-24h12a15.59,15.59,0,0,0,3.67-.41,7.63,7.63,0,0,0,2.87-1.34,6,6,0,0,0,1.86-2.49,9.57,9.57,0,0,0,.65-3.78,8.18,8.18,0,0,0-.68-3.55,5.93,5.93,0,0,0-1.86-2.29,7.45,7.45,0,0,0-2.8-1.25,15.66,15.66,0,0,0-3.48-.38H401Zm42.12,24h-6V359.67h20.07a15.14,15.14,0,0,1,5.57,1,12.28,12.28,0,0,1,4.16,2.64,11.38,11.38,0,0,1,2.61,4,13.38,13.38,0,0,1,.9,5,15.57,15.57,0,0,1-.73,4.69,12.79,12.79,0,0,1-2.27,4.26,11.22,11.22,0,0,1-4.11,3.11,14.44,14.44,0,0,1-6.15,1.18h-14Zm0-24h12a15.73,15.73,0,0,0,3.68-.41,7.66,7.66,0,0,0,2.86-1.34,6,6,0,0,0,1.86-2.49,9.76,9.76,0,0,0,.66-3.78,8.33,8.33,0,0,0-.69-3.55,5.93,5.93,0,0,0-1.86-2.29,7.45,7.45,0,0,0-2.8-1.25,15.66,15.66,0,0,0-3.48-.38H443.1Zm68.88,24H479.11V359.67H512V365H485.14v13.67h24.43V384H485.15v15H512Z"/></g></svg>